<svg version="1" xmlns="http://www.w3.org/2000/svg" width="901.333" height="901.333" viewBox="0 0 676.000000 676.000000"><path d="M328.3 1.4c-1.7.8-3.7 2.5-4.4 3.7-1.3 2.6-6.7 52.3-12.9 120.1-2.3 24.3-4.2 44.3-4.3 44.4-.1.1-4.9.9-10.7 1.8-54.9 9-103.1 34.2-142.1 74.2-20.4 21.1-32.5 38.4-46.8 66.9l-5 10-.1-16c0-8.8-.4-16.5-.8-17.1-1-1.6-4.8-3.4-7-3.4-1.8 0-1.9-1.9-2.5-57.2-.4-31.4-.7-68.1-.7-81.5V123h3.5c3.2 0 3.5-.2 3.5-3 0-2.3-.4-3-2-3-1.1 0-2-.2-2-.3 0-.2 1.8-4.6 3.9-9.8l4-9.4-6.2-.5-6.2-.5-.3-7.8c-.3-6.8-.5-7.7-2.2-7.7-1.7 0-1.9.9-2.2 7.7l-.3 7.8-6.2.3c-3.5.2-6.3.5-6.3.8 0 .3 1.6 4.3 3.5 9 3.9 9.5 4.1 10.4 2 10.4-1 0-1.5 1-1.5 3 0 2.8.3 3 3.6 3h3.5l-.6 67.2c-.3 37-.8 73.7-1.1 81.5l-.6 14.3h-2.4c-1.4 0-3.6 1.1-4.9 2.5-2.5 2.4-2.5 2.7-2.5 20s0 17.6 2.5 20c1.3 1.4 2.9 2.5 3.5 2.5.7 0 1 16.9 1 53.5V438h2.4c2.2 0 2.4.5 3 8 .9 10.5 3.8 27 7 39.6 20.6 81 82.5 148.3 161.6 175.9 54.3 18.9 113.7 18.9 168 0 71.9-25.1 130.4-83.6 155.5-155.5 6.4-18.6 11.7-42.4 13.1-60l.7-8h8.7V331.5l2.9-1.7c3.9-2.2 4.3-4.8 3.9-24.2-.3-15.2-.4-15.9-2.7-17.7-1.3-1-3.3-1.9-4.6-1.9h-2.3l-.6-29.3c-.3-16-.9-52.7-1.2-81.5l-.6-52.2h3.6c3.3 0 3.6-.2 3.6-3 0-2-.5-3-1.5-3-2.1 0-1.9-1.1 2-10.6 1.9-4.6 3.5-8.6 3.5-8.9 0-.2-2.8-.5-6.2-.7l-6.3-.3-.3-7.8c-.3-6.8-.5-7.7-2.2-7.7-1.7 0-1.9.9-2.2 7.7l-.3 7.8-6.2.3c-3.5.2-6.3.4-6.3.6 0 .1 1.8 4.5 4 9.6s4 9.5 4 9.7c0 .2-.9.3-2 .3-1.6 0-2 .7-2 3 0 2.8.3 3 3.5 3h3.5v21.3c0 11.8-.3 48.4-.7 81.5-.6 58.3-.7 60.2-2.5 60.2-2.2 0-6 1.8-7 3.4-.4.6-.8 9.3-.8 19.3 0 17 .1 18.4 2 20.3 1.1 1.1 2.5 2 3 2 .6 0 1 .4 1 1 0 .5-1.4 1-3.1 1-2.5 0-3.2-.6-4.5-3.8-13.6-33-30.4-58.9-54.3-83.6-38.5-39.5-85-64.2-139.5-73.7-6-1.1-11.2-2.1-11.4-2.4-.3-.3-2.2-19.1-4.3-41.7-3.6-38.9-10.2-105.4-11.6-116.2-.4-3.3-1.5-5.9-3.3-8-2.5-2.7-3.4-3.1-9.6-3.3-4.5-.2-8 .2-10.1 1.1zm17.1 5.8c1.2 2 6.1 39.7 5.2 40.5-.2.2-1.5-2.4-3-5.7l-2.7-6h-16l-2.9 6.2c-1.6 3.5-2.9 5.6-3 4.7 0-.9.9-9.9 2-19.9 2.4-22.1 2.4-22 12.1-22 6 0 7 .3 8.3 2.2zM332 52.5V67h9V53.1c0-8.5.4-14.2 1-14.6 1.5-1 8.9 15.5 10 22.3 1.9 11.1 1.5 12.8-4.2 19.9-4.8 5.9-5.2 6.7-4.9 11.1.1 2.6 2.7 36.2 5.6 74.7l5.4 70 7 27.5c6.8 26.4 7 28 7.1 39.5v12l-2.9 1.3c-6.1 2.7-6.1 2.6-6.1 61.5v53.4l2.3 3.4c1.3 2 3.6 3.8 5.5 4.4 3.1.9 3.2 1.1 3.2 6.1v5.3l-4.2.3-4.3.3-.3 5.2c-.2 4.3-.7 5.3-2 5.3-1 0-3.8 2-6.2 4.5l-4.4 4.5h-24.2l-3.4-3.5c-1.9-1.9-4-3.5-4.6-3.5-.9 0-1.4-2.1-1.6-6.3l-.3-6.2-4.2-.3-4.3-.3v-5.3c0-5 .1-5.2 3.2-6.1 1.7-.6 4.1-2.3 5.2-3.8 2.1-2.8 2.1-3.7 2.1-58.2v-55.4l-2.9-3c-1.5-1.6-3.9-3.2-5.2-3.5-2.4-.6-2.4-.8-2.4-12.6 0-11.6.3-13.1 7-40l7-28 5.6-74 5.6-74-4.3-5.3c-2.5-2.8-4.9-5.9-5.6-6.7-2.3-3 .2-17.5 4.8-27.8 2.3-5 4.6-9.2 5-9.2.5 0 .9 6.5.9 14.5zm7 .5c0 11.3-.1 12-2 12s-2-.7-2-12 .1-12 2-12 2 .7 2 12zm-14.1 29.9l4.2 5-5.6 73.3-5.6 73.3-5.4 21-5.3 21-.1-18.1c-.1-17.5 2.7-60 9.4-140.9 2.5-30.4 3.4-39.5 4-39.5.2 0 2.2 2.2 4.4 4.9zm29.1-2.7c0 1.3 1.1 15.1 2.5 30.8 5.6 65.5 10.5 135.8 10.4 150.9l-.1 15.6-5.4-21-5.4-21-5.6-73.7-5.7-73.7 3.9-5c4.3-5.6 5.4-6.2 5.4-2.9zM95.6 106.7l-3.3 7.8-5.4.3c-5.1.3-5.5.1-6.5-2.5-.6-1.5-2.1-5.2-3.3-8.1L75 99h23.8l-3.2 7.7zm503.8-4c-.9 2.1-2.3 5.7-3.2 8.1l-1.7 4.3-5.4-.3-5.4-.3-3.3-7.8-3.3-7.7H601l-1.6 3.7zM96 120c0 .6-3.7 1-9 1s-9-.4-9-1 3.7-1 9-1 9 .4 9 1zm502 0c0 .6-3.7 1-9 1s-9-.4-9-1 3.7-1 9-1 9 .4 9 1zM88.4 155.2c.3 17.8.8 54.5 1.1 81.5l.6 49.3H83.8l.7-80.8c.4-44.4.9-81 1.2-81.5 1.6-2.8 2.1 3 2.7 31.5zm502-27c.3 2.9.8 39.6 1.1 81.5l.7 76.3H586l.6-75.3c.5-75.3.8-87.7 2.4-87.7.5 0 1.1 2.4 1.4 5.2zM97.5 308.5v17l-3.2.3-3.3.3V433h-8l-.2-53.3-.3-53.2-3.2-.3-3.3-.3v-35l10.8.3 10.7.3v17zm502 0v17l-3 .5-3 .5-.3 53.3-.2 53.2h-8V326.1l-3.2-.3-3.3-.3-.3-16c-.1-8.7 0-16.5.3-17.2.3-1.1 2.9-1.3 10.7-1.1l10.3.3v17zm-289.3 13.2c1 .9 1.8 2.9 1.8 4.5v2.8h-44v-2.7c0-1.4.7-3.5 1.7-4.5 1.4-1.6 3.5-1.8 20.1-1.8 15.9 0 18.8.2 20.4 1.7zm96 0c1 .9 1.8 2.9 1.8 4.5v2.8h-44v-2.7c0-1.4.7-3.5 1.7-4.5 1.4-1.6 3.5-1.8 20.1-1.8 15.9 0 18.8.2 20.4 1.7zM263 351.5V374h-13.8l-3.3 8-3.4 8H230v-61h33v22.5zm183 8V390h-12.5l-3.4-8-3.3-8H413v-45h33v30.5zM99 330.9c0 1.2-2 2.5-2.7 1.8-.7-.7.6-2.7 1.8-2.7.5 0 .9.4.9.9zm213 52.5v48.5l-2.6 2c-2.5 1.9-4 2.1-19.1 2.1-15.9 0-19.7-.6-21.5-3.4-.4-.6-.8-7-.8-14.3v-13.2l5.3-.3 5.2-.3.3-6.8.3-6.7H268v-7h11v-13h-11v-36h44v48.4zm96-30.4v18h-11v13h11v7h-11.1l.3 6.7.3 6.8 5.3.3 5.2.3v13.4c0 18.1.7 17.5-21.7 17.5-15.9 0-19.7-.6-21.5-3.4-.4-.6-.8-22.8-.8-49.4V335h44v18zm-306 17.4c0 18.4.4 33.7.8 34 .8.5 85.8 24.6 86.7 24.6.3 0 .5-2.5.5-5.5 0-5.3-.1-5.4-3.2-6.3-1.8-.5-11.5-3.1-21.6-5.7l-18.2-4.8.2-34.6.3-34.6 38.8-.3 38.7-.2v32h-15v9h7.5c6.8 0 7.5.2 7.5 2s-.7 2-7.5 2H210v9h7.5c7.3 0 7.5.1 7.5 2.5s-.2 2.5-7.5 2.5H210v9h15v44h40v12.6c0 10.3-.3 12.5-1.4 12.2-.8-.2-23.3-7.5-50-16.3l-48.6-16v-12.4l-3.7-1c-5.4-1.5-5.3-1.6-5.3 4.5 0 4.7-.3 5.5-1.7 5.2-1.4-.2-1.9-1.7-2.3-6.8-.5-5.8-.7-6.5-3-7.1-5.7-1.6-6-1.3-6 4.7 0 4.7-.3 5.5-1.6 5-.9-.3-2-.6-2.5-.6s-.9-2.9-.9-6.5v-6.4l-3.7-1c-5.4-1.5-5.3-1.6-5.3 4.5 0 4.7-.3 5.5-1.7 5.2-1.4-.2-1.9-1.7-2.3-6.8-.5-5.8-.7-6.5-3-7.1-5.7-1.6-6-1.3-6 4.6 0 3-.2 5.5-.5 5.5s-4.8-1.4-10-3l-9.5-3.1V337h6v33.4zm426.8 1.7l.2 34.6-16.2 4.2c-9 2.4-18.7 4.9-21.5 5.7l-5.3 1.5v5.5c0 4.8.2 5.5 1.8 5 15.7-4.5 84.2-23.6 84.6-23.6.3 0 .7-15.2.8-33.8l.3-33.7 3.3-.3 3.2-.3v82l-8.5 2.6c-4.7 1.4-9.2 2.8-10 3.1-1.2.5-1.5-.4-1.5-5 0-6-.3-6.3-6-4.7-2.3.6-2.5 1.3-3 7.1-.4 5.1-.9 6.6-2.2 6.8-1.5.3-1.8-.5-1.8-5.2 0-6.1.1-6-5.2-4.5l-3.8 1v6.4c0 3.6-.4 6.5-.9 6.5s-1.6.3-2.5.6c-1.3.5-1.6-.3-1.6-5 0-6-.3-6.3-6-4.7-2.3.6-2.5 1.3-3 7.1-.4 5.1-.9 6.6-2.2 6.8-1.5.3-1.8-.5-1.8-5.2 0-6.1.1-6-5.2-4.5l-3.8 1v12.4l-48.8 16c-26.8 8.7-49.3 16.1-49.9 16.3-1 .3-1.3-2.6-1.3-12.2V449h40v-44h15v-9h-7.5c-7.3 0-7.5-.1-7.5-2.5s.2-2.5 7.5-2.5h7.5v-9h-7.5c-6.8 0-7.5-.2-7.5-2s.7-2 7.5-2h7.5v-9h-15v-32l38.8.2 38.7.3.3 34.6zM144 358v20h-39v-40h39v20zm427 0v20h-40v-40h40v20zm-346 15c0 1.8-.7 2-6.5 2s-6.5-.2-6.5-2 .7-2 6.5-2 6.5.2 6.5 2zm239 0c0 1.8-.7 2-6.5 2s-6.5-.2-6.5-2 .7-2 6.5-2 6.5.2 6.5 2zm-188 4.5v4.5h-8v-9h8v4.5zm132 0v4.5h-8v-9h8v4.5zm-147.7.2c-1.8.2-4.8.2-6.5 0-1.8-.2-.4-.4 3.2-.4s5 .2 3.3.4zm162 0c-1.8.2-4.8.2-6.5 0-1.8-.2-.4-.4 3.2-.4s5 .2 3.3.4zM225 387c0 1.8-.7 2-6.5 2s-6.5-.2-6.5-2 .7-2 6.5-2 6.5.2 6.5 2zm239 0c0 1.8-.7 2-6.5 2s-6.5-.2-6.5-2 .7-2 6.5-2 6.5.2 6.5 2zm-188 11v4h-8v-8h8v4zm132 0v4h-8v-8h8v4zm-183 2c0 1.8-.7 2-6.5 2s-6.5-.2-6.5-2 .7-2 6.5-2 6.5.2 6.5 2zm239 0c0 1.8-.7 2-6.5 2s-6.5-.2-6.5-2 .7-2 6.5-2 6.5.2 6.5 2zm-341.2 22.4c.3 4.6-.2 5.2-3.2 4-1.2-.4-1.6-2-1.6-5.5 0-4.6.1-4.8 2.3-4 1.8.7 2.3 1.7 2.5 5.5zM263 424c0 12.9 3.2 16 16.3 16 8.6 0 8.8.1 8.5 2.2l-.3 2.3-28.7.3-28.8.2v-28h33v7zm183 7v14h-58v-2.5c0-2.5.1-2.5 8.8-2.5 12.9 0 16.2-3.3 16.2-16.5V417h33v14zm112-9.6c0 4.2-1 5.6-4.1 5.6-1 0-1.3-8.3-.2-9.3.3-.4 1.5-.7 2.5-.7 1.5 0 1.8.8 1.8 4.4zm-423.6.2c1.2.4 1.6 2 1.6 5.5 0 4.6-.1 4.8-2.2 4-1.9-.7-2.4-1.7-2.6-5.5-.3-4.6.2-5.2 3.2-4zm409.6 4.3c0 4-.3 5-2 5.4-1.8.5-2 0-2-4.3 0-4.4.7-5.6 3.3-5.9.4-.1.7 2.1.7 4.8zm-395 5.3c0 4.2-.3 4.9-1.6 4.4-.9-.3-1.8-.6-2-.6-.2 0-.4-2.2-.4-4.9 0-4.4.2-4.9 2-4.4 1.7.4 2 1.4 2 5.5zm380.8 3.9c-2.4 1.6-2.8.9-2.8-4 0-3.9.4-5 1.8-5.3 1.4-.3 1.8.5 2 4.1.2 2.8-.1 4.7-1 5.2zm-368.4-4.5c1.1.4 1.6 1.9 1.6 5.1 0 4-.2 4.4-2.2 4.1-2-.3-2.3-1-2.6-5.1-.3-4.7.2-5.3 3.2-4.1zm356.4 4.1c-.3 4.1-.6 4.8-2.5 5.1-2.1.3-2.3-.1-2.3-4.1 0-4.4.7-5.4 3.8-5.6.9-.1 1.2 1.2 1 4.6zM301 444.5v4.5h-9v-3.8c0-4.8.4-5.2 5.2-5.2h3.8v4.5zm82.8.2l.3 4.3H375v-9.1l4.3.3c4.2.3 4.2.3 4.5 4.5zM310 475v19.1l-13.2-.3-13.3-.3-.3-18.8-.2-18.7h27v19zm82 0v19h-26v-38h26v19zm-82 22c0 .6-5 1-13 1s-13-.4-13-1 5-1 13-1 13 .4 13 1zm82 0c0 .6-5 1-13 1s-13-.4-13-1 5-1 13-1 13 .4 13 1zm-82 19.5c0 9.7-.4 15.5-1 15.5s-1-4.8-1-12.5V507h-8.9l-.3 12.2c-.3 10.8-.5 12.3-2 12.6-1.6.3-1.8-.8-1.8-12.2V507h-10v12.6c0 8.1-.4 12.3-1 11.9-.6-.4-1-6.7-1-15.6V501h27v15.5zm81.8.2l-.2 15.8-.3-12.8-.4-12.7H381v12.5c0 11.8-.1 12.5-2 12.5s-2-.7-2-12.5V507h-9v12.5c0 7.7-.4 12.5-1 12.5s-1-5.8-1-15.5V501h26l-.2 15.7zm-99.8 3.8c0 9.8-.1 10.5-2 10.5s-2-.7-2-10.5.1-10.5 2-10.5 2 .7 2 10.5zm13 0c0 9.8-.1 10.5-2 10.5s-2-.7-2-10.5.1-10.5 2-10.5 2 .7 2 10.5zm70 0c0 9.8-.1 10.5-2 10.5s-2-.7-2-10.5.1-10.5 2-10.5 2 .7 2 10.5zm13 0c0 9.8-.1 10.5-2 10.5s-2-.7-2-10.5.1-10.5 2-10.5 2 .7 2 10.5zm17.7 6.4c3.4 1.6 8.2 4.8 10.7 7.1l4.5 4.2 6.7-2.7c17.4-6.9 37.5-2.9 49.9 10.1l5.2 5.3 6.9-2.4c16.3-5.8 36-1.7 47.4 10l4.1 4.2-7.4 9.9c-70.4 92.9-195.3 124.2-301.5 75.6-29-13.2-57.3-33.8-78.4-56.8-9.7-10.6-20-24.2-19.3-25.5.4-.6 3.4-3 6.7-5.5 7.5-5.5 16.5-8.4 26.3-8.4 6 0 8.3-.5 12.5-2.7 3.7-1.9 7.3-2.8 11.9-3.1 5.7-.4 7.1-.9 10.5-3.8 10.6-9.1 26.8-12.6 40.9-8.9 7.9 2 13.1 4.9 18.7 10.1 2.6 2.4 5 4.4 5.4 4.4.3 0 2.7-1.5 5.3-3.4 2.7-1.9 6.8-4.2 9.3-5.2 2.5-1 4.8-2.2 5.1-2.7.4-.5 5.8-.7 12-.5 12.2.4 18.9 2.3 26.5 7.4 3.7 2.6 3.8 2.6 8.7 1 2.8-.9 6.8-1.9 9-2.3 3.1-.5 5.3-2 10.6-7.2l6.6-6.6.5 3.9.5 3.8 17.8.2 17.7.1v-6.2c0-4.4.4-6.3 1.3-6.3.6 0 4 1.3 7.4 2.9z"/><path d="M327.7 225.7c-6 25.4-7 32.9-6.4 47.8.3 10 1.1 16.3 2.7 22 3.6 13.3 3.1 12.9 12.9 12.9l8.4.1 1.3-3c.7-1.7 2.2-6.9 3.4-11.5 1.9-7.6 2.1-10.5 1.8-27-.4-17.1-.7-19.8-4.3-35.3l-3.8-16.7h-13.5l-2.5 10.7zM340 233v14h-6v-28h6v14zm-9.8 50c-.8 14-.8 14.4-2.1 10.5-.9-2.5-1.6-10.3-1.9-20.5-.3-14.4-.1-18 2-28.5l2.3-12 .2 18c.2 9.9-.1 24.5-.5 32.5zm17.4-10.5c-.3 7.7-1.1 16.2-1.8 19l-1.3 5-.6-11.5c-.4-6.3-.6-20.1-.7-30.5v-19l2.4 11.5c2.1 10 2.4 13.4 2 25.5zm-7.6-16.1c0 4 .3 10.1.6 13.5l.7 6.1H333v-4.3c0-2.4.3-8.5.6-13.5l.7-9.2H340v7.4zm1.4 30.8c.3 5 .6 10.8.6 13v3.8h-10v-9.3c0-5 .3-10.9.6-13 .6-3.5.9-3.7 4.4-3.7h3.7l.7 9.2zM321 385.5V442h30.9l.3-47.3c.2-25.9.2-51.4 0-56.5l-.3-9.2H321v56.5zm29-50.4v4l-3.3-2.5c-6.1-4.7-14.1-4.6-19.7 0l-3 2.6V331h26v4.1zm-5.4 6.3c4 4 4.5 8.3 1.5 13.2-5.8 9.5-20.1 5.2-20.1-6.1 0-3.4.6-5 2.9-7.4 2.5-2.6 3.6-3.1 7.6-3.1 4 0 5.2.5 8.1 3.4zm-16 20.6c5.9 3.7 13.6 2.8 19.2-2.3l2.2-2V440h-26l.1-41.3c0-22.6.3-40.7.5-40 .3.7 2.1 2.2 4 3.3z"/><path d="M334.2 343.7c-.7.3-1.8 1.6-2.3 3-2 5.3 4.5 9.7 8.5 5.7 4.2-4.1-.7-10.9-6.2-8.7zm5.1 3.5c1.4 2.1.2 4.8-2.2 4.8-3 0-4.5-3.4-2.5-5.5 1.8-1.8 3.3-1.6 4.7.7zM327.6 375.2c-.8 11.5-.8 28.7 0 35.5l.7 5.3H346v-50H328.3l-.7 9.2zM343 372v3h-13v-6h13v3zm0 9v3h-12v-6h12v3zm0 11v5h-12v-10h12v5zm0 11v3h-12v-6h12v3zm0 8c0 1.8-.7 2-6.5 2s-6.5-.2-6.5-2 .7-2 6.5-2 6.5.2 6.5 2zM330.5 420.5c-3.8 3.7-3.5 9.5.6 12.9 4.1 3.5 8.3 3.4 12-.3 3.7-3.7 3.8-7.9.3-12-3.4-4.1-9.2-4.4-12.9-.6zm10.8 2.3c3.8 3.3.9 10.2-4.3 10.2-6.4 0-8.5-9.1-2.7-11.7 2.5-1.1 4.4-.7 7 1.5zM80 312v10h5v-20h-5v10zM89 312v10h5v-20h-5v10zM582 312v10h5v-20h-5v10zM591 312v10h5v-20h-5v10z"/></svg>